<?xml version="1.0" standalone="no"?>
<!DOCTYPE svg PUBLIC "-//W3C//DTD SVG 20010904//EN"
 "http://www.w3.org/TR/2001/REC-SVG-20010904/DTD/svg10.dtd">
<svg version="1.0" xmlns="http://www.w3.org/2000/svg"
 width="900.000000pt" height="500.000000pt" viewBox="0 0 900.000000 500.000000"
 preserveAspectRatio="xMidYMid meet">
<metadata>
Created by potrace 1.15, written by Peter Selinger 2001-2017
</metadata>
<g transform="translate(0.000000,500.000000) scale(0.100000,-0.100000)"
fill="#000000" stroke="none">
<path d="M3704 3876 c-199 -52 -337 -154 -467 -345 -171 -253 -265 -628 -268
-1070 l-1 -156 -29 185 c-16 102 -58 385 -94 630 -70 473 -92 581 -129 637
-29 43 -79 77 -131 92 -56 15 -651 15 -713 -1 -66 -16 -124 -77 -140 -146 -26
-113 -7 -236 48 -303 l30 -38 -139 -886 -140 -885 -36 -42 c-80 -94 -98 -269
-39 -365 51 -81 73 -87 333 -91 234 -4 292 3 341 38 25 18 26 18 50 -1 48 -36
110 -41 485 -37 354 3 361 3 408 26 60 30 92 83 108 178 10 57 10 83 -1 133
-12 58 -25 81 -90 161 -16 19 -27 65 -45 185 -14 88 -24 165 -24 170 0 6 14
-39 30 -98 81 -305 248 -559 443 -676 119 -71 313 -119 436 -106 84 8 238 48
292 76 160 81 288 217 389 413 l46 89 6 -214 c3 -118 9 -227 13 -243 4 -16 24
-46 45 -67 29 -29 49 -39 86 -45 26 -4 215 -8 418 -8 359 -1 372 0 452 22 51
15 107 40 149 68 37 24 68 44 70 44 2 0 28 -22 59 -50 34 -29 78 -56 109 -66
94 -32 216 -19 273 30 l27 23 45 -21 c45 -20 61 -21 571 -24 613 -4 620 -3
691 68 56 56 65 88 110 393 29 196 31 224 19 274 -25 116 -129 173 -287 160
-94 -8 -137 -22 -178 -61 l-35 -33 0 721 0 721 34 22 c96 62 131 206 86 356
-17 59 -73 114 -133 132 -75 22 -780 22 -855 0 -67 -20 -106 -61 -128 -133
l-16 -57 -18 62 c-21 79 -57 125 -117 154 -40 20 -64 24 -138 24 -80 0 -95 -3
-136 -27 -31 -18 -50 -24 -60 -18 -8 5 -56 19 -107 31 -165 38 -341 10 -491
-78 -187 -110 -372 -360 -459 -621 l-28 -83 -28 83 c-81 247 -230 468 -391
583 -86 61 -136 84 -243 111 -125 32 -243 32 -368 0z m351 -36 c232 -59 397
-206 530 -470 51 -101 81 -184 115 -314 16 -59 31 -110 33 -112 2 -2 11 31 21
74 24 102 78 248 129 347 58 111 177 266 255 330 125 104 284 165 427 165 74
0 201 -27 253 -54 27 -14 31 -14 43 1 38 46 155 66 241 43 45 -13 93 -52 114
-91 8 -16 43 -173 79 -349 62 -311 63 -321 49 -369 -17 -60 -51 -95 -111 -115
-93 -32 -215 -11 -271 47 -17 17 -65 97 -107 176 -42 80 -90 164 -106 187 -62
91 -117 107 -154 44 -19 -33 -20 -54 -23 -305 l-3 -270 403 0 403 0 38 -23 37
-24 0 311 c0 193 -4 311 -10 311 -5 0 -25 14 -45 31 -47 41 -69 117 -63 213 6
88 29 139 77 168 36 23 37 23 451 23 l415 0 39 -24 c99 -62 117 -289 30 -377
-19 -18 -46 -37 -59 -40 l-25 -6 1 -857 c0 -471 2 -851 4 -846 2 6 15 49 30
98 44 150 111 195 274 185 127 -8 184 -51 197 -149 6 -44 -53 -462 -76 -542
-17 -57 -69 -103 -132 -117 -37 -8 -208 -10 -578 -8 l-525 3 -42 24 c-24 14
-43 29 -43 35 0 6 -16 -6 -36 -27 -89 -91 -238 -84 -357 17 -86 72 -82 71
-125 38 -62 -48 -103 -69 -182 -94 -74 -23 -83 -23 -465 -22 -441 1 -447 2
-482 72 -16 33 -18 72 -21 342 -2 168 -5 312 -8 320 -3 8 -16 -19 -30 -60 -41
-125 -137 -308 -207 -395 -142 -180 -340 -276 -567 -278 -404 -4 -687 280
-819 820 -46 191 -56 285 -56 553 0 271 13 383 66 586 69 266 175 463 327 605
171 160 424 226 647 169z m-1471 -32 c22 -7 57 -29 77 -49 47 -47 69 -128 108
-399 17 -113 82 -553 146 -979 122 -816 119 -803 180 -860 36 -33 59 -120 51
-194 -8 -84 -36 -139 -82 -168 l-39 -24 -365 -3 c-408 -3 -433 -1 -479 55
l-27 33 -13 -23 c-7 -13 -27 -32 -44 -43 -29 -17 -53 -19 -284 -19 -238 0
-253 1 -280 21 -96 70 -97 254 -3 373 l40 50 141 901 142 901 -32 33 c-55 57
-76 177 -50 282 13 52 56 100 102 113 50 15 661 13 711 -1z m3826 -720 c0
-244 -1 -260 -17 -252 -10 5 -190 10 -401 12 l-383 3 3 249 c3 211 5 252 19
265 8 9 22 13 30 10 26 -11 76 -88 156 -240 96 -185 132 -224 226 -250 120
-32 247 -3 303 70 14 19 32 57 39 84 12 47 11 63 -16 199 -16 81 -29 151 -29
155 0 4 16 -4 35 -19 l35 -26 0 -260z"/>
<path d="M3724 3800 c-133 -35 -267 -118 -352 -218 -167 -199 -280 -512 -313
-872 -14 -152 -6 -467 15 -602 69 -435 250 -762 491 -884 116 -59 190 -77 315
-77 293 -1 513 149 664 450 100 201 152 397 179 678 1 17 6 -197 10 -475 8
-552 11 -590 37 -622 25 -31 86 -36 455 -37 348 -1 413 6 511 54 28 14 73 44
98 66 44 39 49 41 73 28 14 -7 50 -35 80 -61 77 -68 107 -81 183 -82 74 0 119
19 147 61 17 25 18 73 21 610 l3 582 36 17 c70 34 102 188 57 280 -36 73 -40
74 -462 74 -306 0 -379 -3 -408 -15 l-36 -15 4 308 c3 276 5 311 22 342 54
102 140 92 223 -27 23 -32 75 -123 117 -203 42 -80 88 -155 101 -167 51 -45
169 -57 243 -23 33 15 47 29 62 64 19 41 19 48 5 128 -33 191 -114 557 -130
587 -44 87 -248 97 -302 15 l-15 -23 -47 24 c-212 107 -479 57 -675 -126 -205
-191 -341 -500 -391 -883 -8 -66 -18 -122 -20 -125 -3 -2 -5 20 -5 50 0 78
-26 246 -54 359 -84 328 -260 596 -465 704 -142 75 -325 96 -477 56z m197
-355 c9 -40 9 -1893 0 -1924 -3 -13 -14 -29 -24 -35 -15 -9 -21 -7 -33 8 -12
17 -14 160 -14 984 0 664 3 970 11 983 16 31 52 21 60 -16z m-785 -988 c0
-155 6 -255 18 -332 76 -493 297 -823 594 -884 76 -16 218 -14 287 4 293 75
502 381 586 861 19 107 23 168 23 351 1 199 3 223 17 223 9 0 19 -10 23 -22 9
-37 7 -355 -4 -453 -62 -555 -307 -939 -645 -1010 -153 -32 -331 -11 -455 56
-249 132 -430 488 -479 941 -12 107 -15 471 -4 481 3 4 13 7 22 7 14 0 16 -27
17 -223z m676 -359 c3 -535 4 -586 21 -615 20 -37 59 -52 83 -32 43 35 44 48
44 497 0 236 3 497 7 580 6 139 8 152 25 152 17 0 18 -23 18 -572 0 -382 -4
-586 -11 -612 -13 -45 -55 -92 -92 -101 -41 -11 -93 20 -117 69 -19 41 -20 59
-20 629 0 577 0 587 20 587 19 0 19 -11 22 -582z m1005 69 c1 -281 4 -608 8
-725 l7 -213 397 3 396 3 66 31 c39 19 87 53 119 84 l53 54 61 -32 c34 -17 90
-57 125 -87 l63 -56 61 3 c54 3 63 6 74 28 10 19 13 155 13 587 0 396 3 569
11 587 7 13 24 30 40 36 15 7 34 19 42 28 19 22 27 88 17 141 -7 39 -6 42 13
39 27 -4 41 -56 32 -125 -7 -59 -31 -95 -75 -113 l-30 -12 0 -562 c0 -308 -5
-579 -10 -601 -14 -60 -48 -85 -120 -85 -76 0 -101 10 -167 69 -30 27 -75 60
-99 73 l-44 23 -47 -46 c-119 -114 -143 -119 -624 -119 -372 0 -387 1 -404 20
-17 18 -18 66 -23 734 -3 393 -2 721 1 730 4 9 14 16 24 16 17 0 18 -28 20
-513z m675 -70 c3 -538 4 -585 21 -610 17 -27 58 -36 83 -19 29 19 32 59 35
494 l4 448 -49 43 c-49 43 -50 45 -54 110 -5 82 3 117 26 117 15 0 17 -9 14
-76 l-4 -75 53 -49 54 -50 3 -432 c2 -238 0 -453 -3 -477 -18 -122 -166 -153
-211 -45 -11 27 -14 141 -14 619 0 575 0 585 20 585 19 0 19 -11 22 -583z
m108 -121 c0 -425 -4 -486 -36 -486 -31 0 -34 40 -34 494 l0 455 35 -20 35
-21 0 -422z"/>
<path d="M6440 3763 c-55 -28 -72 -72 -67 -173 4 -102 21 -140 77 -171 l40
-23 0 -927 c0 -730 -3 -931 -12 -939 -7 -6 -27 -20 -45 -30 -53 -32 -68 -64
-68 -150 0 -94 20 -134 78 -161 40 -17 73 -19 562 -19 325 0 534 4 557 10 81
23 97 69 144 404 25 180 26 202 13 239 -24 68 -54 82 -172 82 -160 0 -176 -15
-236 -220 -38 -129 -58 -175 -77 -175 -12 0 -14 145 -14 939 l0 939 47 23 c75
38 88 64 88 172 0 102 -12 137 -58 171 -28 20 -41 21 -425 24 -363 2 -400 1
-432 -15z m130 -1660 c0 -559 -1 -579 -20 -611 -11 -18 -36 -40 -55 -49 -39
-19 -50 -43 -49 -112 1 -34 7 -49 24 -63 21 -17 53 -18 530 -18 332 0 518 4
537 11 39 13 41 23 84 313 l32 219 -24 20 c-20 16 -36 18 -96 15 -50 -2 -78
-9 -89 -19 -9 -9 -34 -77 -56 -150 -62 -209 -79 -229 -188 -229 l-60 0 0 625
0 625 25 0 25 0 0 -605 c0 -501 2 -605 14 -605 7 0 27 5 44 11 36 12 56 53
103 217 36 124 56 155 115 171 96 27 190 5 216 -49 16 -34 15 -44 -17 -271
-41 -286 -40 -280 -76 -315 l-30 -29 -507 -3 c-279 -2 -527 0 -551 3 -29 5
-54 16 -73 35 -26 26 -28 35 -28 102 0 84 11 106 70 143 28 18 42 35 49 62 7
24 11 235 11 586 0 540 0 547 20 547 20 0 20 -7 20 -577z"/>
<path d="M6413 2397 l-32 -22 -1 -428 c0 -236 3 -427 8 -425 4 2 19 10 35 17
l27 14 0 434 c0 238 -1 433 -2 432 -2 0 -17 -11 -35 -22z"/>
<path d="M1873 3765 c-47 -20 -65 -56 -71 -138 -6 -94 11 -153 54 -192 19 -17
34 -40 34 -51 0 -10 -64 -426 -142 -923 l-142 -904 -34 -40 c-51 -62 -65 -96
-70 -173 -3 -55 0 -80 14 -109 28 -60 51 -65 301 -65 188 0 223 2 253 18 47
23 63 62 63 147 0 91 -20 136 -77 177 -51 35 -51 37 -34 120 l12 58 117 0 116
0 7 -52 c11 -98 9 -108 -33 -147 -87 -80 -81 -261 10 -309 18 -9 113 -11 396
-10 359 3 373 4 400 24 37 28 52 60 59 130 8 80 -9 137 -56 188 -22 23 -44 54
-49 69 -6 15 -72 436 -146 935 -160 1076 -162 1092 -181 1145 -18 50 -48 85
-91 103 -47 20 -664 19 -710 -1z m-13 -1093 c0 -14 -171 -1116 -176 -1139 -3
-12 -21 -40 -40 -62 -43 -50 -64 -99 -64 -150 0 -69 5 -71 231 -71 119 0 208
4 220 10 16 9 19 22 19 76 0 71 1 70 -89 145 -34 30 -39 65 -22 156 6 26 13
69 16 96 l6 47 187 -2 187 -3 18 -120 c9 -66 15 -131 11 -144 -3 -13 -26 -43
-51 -66 -46 -42 -46 -43 -47 -109 -1 -49 3 -69 14 -76 9 -6 152 -9 368 -8 301
3 354 5 362 18 5 8 10 47 10 86 0 63 -3 73 -26 95 -38 35 -72 98 -84 154 -5
28 -42 266 -80 530 -38 264 -72 495 -75 513 -5 27 -3 32 14 32 13 0 21 -9 25
-27 6 -28 139 -895 151 -988 10 -70 39 -133 83 -178 l37 -38 0 -94 c0 -90 -1
-96 -28 -122 l-27 -28 -375 0 c-415 0 -399 -3 -414 66 -4 19 -5 63 -1 98 6 61
8 66 55 106 l48 42 -14 104 -14 104 -146 3 -145 3 -17 -92 c-18 -102 -14 -120
31 -143 15 -8 38 -26 52 -41 23 -24 25 -34 25 -115 0 -80 -2 -92 -23 -112 -22
-22 -30 -23 -220 -26 -235 -4 -277 0 -298 33 -43 65 -25 177 41 254 37 43 45
61 54 118 36 218 171 1063 171 1068 0 3 9 5 20 5 11 0 20 -4 20 -8z m270 -7
c0 -8 -20 -157 -45 -332 -25 -175 -45 -321 -45 -325 0 -5 50 -8 110 -8 95 0
110 2 110 16 0 21 -79 610 -85 642 -4 17 -1 22 15 22 25 0 21 18 75 -360 24
-173 47 -327 50 -342 l5 -28 -165 0 c-156 0 -165 1 -165 19 0 11 22 169 50
353 27 183 50 339 50 346 0 6 9 12 20 12 11 0 20 -7 20 -15z m84 -567 l7 -58
-71 0 -72 0 6 28 c3 15 17 110 31 212 38 272 35 269 65 60 15 -102 30 -211 34
-242z"/>
<path d="M2066 1642 c-2 -4 -7 -23 -11 -43 -6 -34 -4 -38 29 -58 20 -13 44
-36 53 -52 21 -35 26 -36 43 -4 7 14 24 32 37 40 24 16 30 53 17 103 -6 20
-12 22 -85 22 -43 0 -80 -3 -83 -8z"/>
</g>
</svg>
